# xmcd
# 
# Track frame offsets:
#     150
#     43532
#     76993
#     98317
#     142806
# 
# Disc length: 2467
# 
# Revision: 1
# Processed by: cddbd v1.5.2PL0 Copyright (c) Steve Scherf et al.
# Submitted via: BonkEnc v1.0.8
# 
DISCID=2b09a105
DTITLE=Slide Hampton - Trombone Workshop
DYEAR=1971
DGENRE=Contemporary Jazz
TTITLE0=Trombone Suit
TTITLE1=Mother Someplace
TTITLE2=Uli's Dance
TTITLE3=Ice - Nine
TTITLE4=A Certain Beauty
EXTD=YEAR: 1971
EXTT0=
EXTT1=
EXTT2=
EXTT3=
EXTT4=
PLAYORDER=
